<svg xmlns="http://www.w3.org/2000/svg" width="100" height="100" viewBox="0 0 600 600" version="1.1"><path d="M 340.917 240.416 C 340.688 240.645, 331.515 241.368, 320.533 242.024 C 309.551 242.679, 299.582 243.589, 298.379 244.046 C 296.379 244.806, 284.081 258.112, 248.259 298.273 C 229.213 319.626, 229.231 320.453, 249.122 338.581 C 256.316 345.136, 267.301 355.168, 273.535 360.873 C 289.069 375.090, 291.229 376.531, 296.684 376.320 C 302.220 376.106, 304.386 374.696, 311.322 366.793 C 314.359 363.332, 327.266 348.800, 340.003 334.500 C 352.740 320.200, 363.818 307.251, 364.620 305.725 C 365.860 303.363, 365.922 300.009, 365.031 283.225 C 364.456 272.376, 363.832 260.264, 363.646 256.310 C 363.101 244.724, 358.410 240.010, 347.417 240.004 C 344.071 240.002, 341.146 240.187, 340.917 240.416 M 336.110 255.396 C 327.360 260.246, 331.080 274, 341.143 274 C 344.118 274, 348.660 271.042, 349.915 268.288 C 351.837 264.069, 351.180 260.980, 347.600 257.400 C 343.901 253.701, 340.300 253.073, 336.110 255.396 M 276.530 282.992 C 271.773 285.471, 266.853 288.492, 265.597 289.705 C 262.731 292.470, 255.873 308.643, 255.660 313.139 C 255.520 316.085, 255.956 316.723, 259.188 318.303 C 261.217 319.294, 264.472 320.365, 266.423 320.681 C 269.493 321.179, 270.097 320.937, 270.921 318.878 C 271.780 316.732, 271.879 316.871, 271.937 320.298 C 271.971 322.387, 271.292 330.206, 270.426 337.674 C 269.262 347.712, 269.144 351.545, 269.974 352.376 C 271.327 353.732, 314.806 354.594, 316.109 353.291 C 316.880 352.520, 316.265 342.510, 314.377 325.093 C 313.896 320.654, 314.010 318.888, 314.748 319.344 C 315.334 319.706, 319.230 319.471, 323.407 318.822 C 330.760 317.679, 331 317.554, 331 314.862 C 331 311.620, 324.877 293.987, 322.482 290.332 C 321.581 288.958, 319.192 287.171, 317.172 286.363 C 315.152 285.554, 310.698 283.544, 307.272 281.895 C 302.174 279.440, 299.606 278.859, 293.112 278.690 C 285.476 278.491, 284.855 278.652, 276.530 282.992" stroke="none" fill="#fbfbca" fill-rule="evenodd"/><path d="M 285.500 170.091 C 278.350 184.971, 272.350 197.562, 272.167 198.072 C 271.967 198.628, 282.726 199, 299 199 C 315.274 199, 326.033 198.628, 325.833 198.072 C 324.695 194.903, 299.407 143.038, 299 143.038 C 298.725 143.038, 292.650 155.212, 285.500 170.091 M 174.019 195.250 C 174.104 196.353, 193.981 252.314, 194.456 252.790 C 194.796 253.129, 203.598 244.891, 214.017 234.483 C 224.435 224.075, 232.631 215.274, 232.230 214.925 C 231.413 214.215, 175.927 194.969, 174.750 194.988 C 174.338 194.995, 174.009 195.113, 174.019 195.250 M 393.821 204.822 C 378.598 210.158, 365.902 214.765, 365.608 215.059 C 365.314 215.353, 373.590 224.101, 384 234.500 C 394.410 244.899, 403.179 253.154, 403.488 252.845 C 403.797 252.537, 408.275 240.183, 413.439 225.392 C 418.603 210.601, 423.140 197.713, 423.521 196.750 C 423.979 195.594, 423.753 195.020, 422.857 195.059 C 422.111 195.092, 409.045 199.485, 393.821 204.822 M 288 210.648 C 247.403 216.745, 217.572 237.593, 200.930 271.500 C 191.895 289.906, 188.517 306.913, 190.005 326.500 C 190.735 336.111, 193.341 350.975, 194.701 353.288 C 194.956 353.721, 198.024 351.401, 201.518 348.132 C 215.797 334.775, 233.117 331.598, 248 339.606 C 252.155 341.842, 251.837 341.394, 243.851 333.764 C 229.947 320.478, 230.191 318.529, 248.303 298.223 C 284.216 257.960, 296.386 244.804, 298.436 244.024 C 299.669 243.555, 306.488 242.888, 313.589 242.542 C 320.690 242.195, 328.036 241.672, 329.914 241.380 C 333.248 240.860, 333.274 240.820, 331.012 239.674 C 327.443 237.865, 326.409 235.592, 327.783 232.578 C 329.465 228.885, 333.089 229.235, 342.553 234.006 C 355.563 240.565, 358.864 243.080, 366.173 252 C 373.370 260.784, 381.633 275.965, 382.660 282.290 C 383.148 285.299, 382.854 286.049, 380.615 287.517 C 378.247 289.068, 377.780 289.086, 375.665 287.700 C 374.336 286.830, 372.403 283.655, 371.180 280.335 C 369.997 277.126, 367.880 272.700, 366.474 270.500 L 363.918 266.500 364.446 275.500 C 364.737 280.450, 365.229 288.775, 365.541 294 C 366.034 302.254, 365.857 303.894, 364.195 306.500 C 363.143 308.150, 352.143 320.826, 339.750 334.669 C 327.357 348.512, 316.899 360.354, 316.510 360.984 C 314.487 364.257, 329.288 354.880, 335.651 348.857 C 348.189 336.990, 360.538 332.973, 373.934 336.404 C 382.047 338.483, 385.704 340.723, 394.923 349.260 C 403.443 357.150, 402.921 357.356, 406.233 344.800 C 408.082 337.789, 408.411 333.937, 408.350 320 C 408.287 305.572, 407.952 302.270, 405.685 293.706 C 395.406 254.870, 366.969 225.237, 329.742 214.570 C 316.422 210.753, 298.508 209.070, 288 210.648 M 336.110 255.396 C 327.360 260.246, 331.080 274, 341.143 274 C 344.118 274, 348.660 271.042, 349.915 268.288 C 351.837 264.069, 351.180 260.980, 347.600 257.400 C 343.901 253.701, 340.300 253.073, 336.110 255.396 M 276.530 282.992 C 271.773 285.471, 266.853 288.492, 265.597 289.705 C 262.731 292.470, 255.873 308.643, 255.660 313.139 C 255.520 316.085, 255.956 316.723, 259.188 318.303 C 261.217 319.294, 264.472 320.365, 266.423 320.681 C 269.493 321.179, 270.097 320.937, 270.921 318.878 C 271.780 316.732, 271.879 316.871, 271.937 320.298 C 271.971 322.387, 271.292 330.206, 270.426 337.674 C 269.262 347.712, 269.144 351.545, 269.974 352.376 C 271.327 353.732, 314.806 354.594, 316.109 353.291 C 316.880 352.520, 316.265 342.510, 314.377 325.093 C 313.896 320.654, 314.010 318.888, 314.748 319.344 C 315.334 319.706, 319.230 319.471, 323.407 318.822 C 330.760 317.679, 331 317.554, 331 314.862 C 331 311.620, 324.877 293.987, 322.482 290.332 C 321.581 288.958, 319.192 287.171, 317.172 286.363 C 315.152 285.554, 310.698 283.544, 307.272 281.895 C 302.174 279.440, 299.606 278.859, 293.112 278.690 C 285.476 278.491, 284.855 278.652, 276.530 282.992 M 150.017 305.984 C 135.452 313.086, 123.425 319.257, 123.291 319.698 C 122.995 320.671, 177.188 346.909, 178.250 346.307 C 178.662 346.073, 179 333.984, 179 319.441 C 179 298.936, 178.719 293.008, 177.750 293.036 C 177.063 293.056, 164.583 298.883, 150.017 305.984 M 419 319.441 C 419 333.984, 419.337 346.073, 419.750 346.307 C 420.791 346.897, 475.008 320.681, 474.719 319.727 C 474.446 318.827, 421.624 293, 420.055 293 C 419.342 293, 419 301.562, 419 319.441 M 85.024 349.539 C 70.518 353.607, 60.132 365.123, 61.167 375.992 C 61.610 380.637, 63.598 380.841, 68.887 376.785 C 77.941 369.842, 79.536 368.900, 84.852 367.355 C 88.595 366.267, 92.733 365.906, 97.915 366.216 C 108.226 366.832, 114.848 370.131, 125.402 379.909 C 137.805 391.400, 146.855 395, 163.339 395 C 178.935 395, 188.647 390.946, 201.278 379.162 C 211.291 369.820, 217.783 366.686, 228.182 366.173 C 240.954 365.543, 248.375 368.816, 260.245 380.314 C 271.014 390.747, 281.761 394.976, 297.500 394.976 C 313.231 394.976, 323.587 390.907, 334.576 380.408 C 346.772 368.756, 354.047 365.543, 366.818 366.173 C 377.217 366.686, 383.709 369.820, 393.722 379.162 C 406.353 390.946, 416.065 395, 431.661 395 C 448.024 395, 457.628 391.131, 470.011 379.551 C 474.326 375.515, 480.476 370.928, 483.678 369.357 C 488.903 366.794, 490.526 366.500, 499.500 366.500 C 508.227 366.500, 510.219 366.837, 515.147 369.148 C 518.254 370.604, 523.537 374.316, 526.889 377.398 C 533.401 383.385, 533.946 383.654, 535.800 381.800 C 540.903 376.697, 528.667 357.824, 516.568 352.137 C 500.387 344.531, 484.510 347.794, 469.757 361.756 C 461.368 369.695, 455.723 373.226, 448 375.367 C 427.701 380.994, 409.981 376.523, 394.898 361.969 C 383.092 350.577, 370.726 346.211, 357.821 348.876 C 348.841 350.731, 343.151 354.002, 333.966 362.592 C 324.310 371.622, 316.524 375.550, 305.072 377.170 C 288.107 379.569, 274.301 374.999, 261.034 362.592 C 251.849 354.002, 246.159 350.731, 237.179 348.876 C 224.274 346.211, 211.908 350.577, 200.102 361.969 C 185.019 376.523, 167.299 380.994, 147 375.367 C 139.277 373.226, 133.632 369.695, 125.243 361.756 C 112.648 349.836, 98.878 345.653, 85.024 349.539 M 89.185 395.146 C 76.380 397.209, 64.232 407.136, 61.931 417.417 C 59.689 427.435, 62.527 428.524, 71.698 421.164 C 75.013 418.504, 79.681 415.545, 82.072 414.588 C 88.784 411.902, 98.534 411.434, 105.552 413.460 C 113.296 415.695, 117.002 418.025, 125.500 426 C 138.149 437.870, 145.929 441, 162.787 441 C 179.570 441, 189.641 437.143, 199.500 426.940 C 218.329 407.453, 240.769 407.052, 260.351 425.853 C 273.377 438.360, 281.471 441.394, 300.350 440.850 C 311.946 440.515, 312.852 440.331, 320.213 436.817 C 325.774 434.161, 330.283 430.913, 336.381 425.170 C 347.243 414.938, 352.677 412.582, 365.500 412.549 C 373.526 412.528, 375.216 412.863, 381.115 415.647 C 385.301 417.622, 389.754 420.825, 393.241 424.369 C 405.361 436.684, 415.550 441, 432.500 441 C 449.448 441, 459.042 436.978, 472.174 424.368 C 476.058 420.638, 481.283 416.822, 484.674 415.240 C 489.729 412.881, 491.758 412.521, 500 412.521 C 508.171 412.521, 510.290 412.890, 515.147 415.158 C 518.254 416.609, 523.537 420.316, 526.889 423.398 C 533.486 429.463, 535.335 430.111, 537.026 426.951 C 540.579 420.313, 525.832 401.700, 513.308 397.014 C 507.382 394.797, 497.333 394.119, 490.930 395.504 C 484.784 396.834, 477.645 401.155, 471.009 407.562 C 459.085 419.073, 447.573 424, 432.602 424 C 417.819 424, 407.206 419.619, 395.195 408.560 C 385.698 399.814, 379.347 396.293, 371.015 395.154 C 357.384 393.289, 347.405 396.959, 335.287 408.292 C 322.193 420.538, 311.274 424.661, 294.500 423.694 C 279.790 422.846, 271.084 418.839, 259.591 407.625 C 248.963 397.256, 237.808 393.239, 224.662 395.048 C 216.275 396.202, 209.044 400.149, 200.753 408.098 C 186.266 421.988, 168.981 426.913, 150.231 422.492 C 140.925 420.298, 134.729 416.724, 125.867 408.436 C 113.162 396.555, 103.089 392.905, 89.185 395.146" stroke="none" fill="#f8c832" fill-rule="evenodd"/></svg>